<svg width="500" height="48" viewBox="0 0 500 48" fill="none" xmlns="http://www.w3.org/2000/svg">
<path d="M290.538 44.9482L288.829 44.7584C286.55 44.5007 286.415 43.8089 286.415 39.2246V28.6181C286.415 24.1694 284.258 20.4259 278.222 20.4259C274.981 20.4259 271.943 21.945 269.651 23.7218C269.461 23.5997 269.393 23.0843 269.393 22.5147V9.16846C269.393 6.37443 269.515 3.20063 269.583 1.28822C269.461 1.03052 269.203 0.908447 268.945 0.908447C266.667 2.11557 263.683 3.07857 262.082 3.5804C261.77 3.77029 261.77 4.6519 262.082 4.85535L262.72 5.23512C264.632 6.37443 264.686 6.7542 264.686 10.4977V39.211C264.686 40.8657 264.673 42.005 264.551 42.8053C263.845 44.677 261.96 44.5278 260.631 44.5007C254.934 44.4193 254.229 41.137 254.229 37.4478V25.5935C254.229 24.2643 254.297 24.0744 255.368 24.0744H260.17C260.739 23.6947 260.875 21.9721 260.102 21.4025H255.436C254.351 21.4025 254.297 21.3347 254.297 20.1954V14.9328C254.039 14.4852 253.008 14.7022 252.805 14.9193C252.032 16.3841 251.476 19.3002 250.201 20.7243C249.672 21.3075 248.139 22.0671 246.295 22.6367C246.037 23.0165 246.051 23.8167 246.43 24.0744H248.207C249.482 24.0744 249.536 24.1965 249.536 25.919V40.4588C249.591 42.7646 251.91 46.3181 257.484 46.508C257.484 46.508 257.484 46.5216 257.498 46.5216C257.634 46.5216 257.783 46.5216 257.932 46.5216C258.013 46.5216 258.081 46.5216 258.149 46.5216C258.244 46.5216 258.325 46.508 258.42 46.508C261.106 46.4809 264.998 46.4673 267.046 46.4673C269.271 46.4673 271.115 46.5216 273.014 46.6572C273.462 46.4673 273.584 45.206 273.15 44.9482L271.821 44.7584C269.528 44.4328 269.406 43.8089 269.406 39.2246V28.5639C269.406 26.3395 269.596 26.014 270.749 25.0646C271.902 24.1151 273.543 23.3556 275.7 23.3556C279.755 23.3556 281.735 26.0818 281.735 30.1508V39.2381C281.735 43.8089 281.668 44.3786 279.321 44.7719L278.06 44.9618C277.612 45.2873 277.748 46.4809 278.182 46.6708C279.904 46.5487 281.803 46.4809 284.095 46.4809C286.32 46.4809 288.164 46.5487 290.443 46.6708C290.85 46.4673 290.985 45.2738 290.538 44.9482Z" fill="white"/>
<path d="M244.965 45.0159L243.459 44.826C241.194 44.5141 241.072 43.8766 241.072 39.36V9.61588C241.072 6.84898 241.194 3.70231 241.262 1.81702C241.14 1.57289 240.882 1.43726 240.638 1.43726C238.373 2.63082 235.416 3.58024 233.843 4.08208C233.531 4.27197 233.531 5.15358 233.843 5.34346L234.467 5.72324C236.352 6.86255 236.42 7.22875 236.42 10.9451V39.36C236.42 43.8902 235.403 44.5412 234.033 44.826C233.667 44.9074 233.219 44.9481 232.812 44.9752C231.632 45.043 230.71 44.9617 229.761 44.826C226.004 44.2835 225.624 42.1269 225.664 39.0345L226.044 28.089C226.234 23.369 224.023 20.7242 219.507 20.7242C214.909 20.7242 207.802 25.1865 207.802 28.4688C207.802 29.0249 208.114 29.3504 208.683 29.3504C209.619 29.3504 211.315 28.9164 212.264 28.1568C212.766 27.777 212.82 27.0175 212.888 26.0138C213.023 24.0607 215.153 23.1791 216.916 23.1791C220.809 23.1791 221.568 26.3258 221.501 28.6451L221.46 30.978C221.392 31.9274 221.026 32.4699 220.361 32.7141C219.873 32.9039 216.74 33.7042 212.942 35.3453C209.063 37.0407 207.666 38.9531 207.666 41.4081C207.666 43.1713 208.426 44.7446 209.619 45.8026C210.691 46.752 212.196 47.2538 214.027 47.2538C215.79 47.2538 217.174 46.44 218.557 45.6805C219.819 44.9888 220.565 44.4191 221.012 44.4191C221.392 44.4191 221.731 44.9074 222.165 45.2736C223.426 46.4129 224.742 46.5486 226.085 46.535C228.825 46.5214 231.564 46.535 232.636 46.535L238.753 46.44C240.964 46.44 244.856 46.6299 244.856 46.6299C245.277 46.4807 245.399 45.3279 244.965 45.0159ZM221.134 39.9161C221.134 41.2318 221.066 42.1134 220.321 42.8729C219.697 43.4968 217.743 44.4462 216.482 44.4462C213.281 44.4462 212.481 41.7472 212.522 40.6757C212.617 37.4341 214.326 36.8373 218.001 35.4538C219.276 34.9791 220.28 34.8028 220.66 34.8028C221.039 34.8028 221.256 35.2504 221.256 35.9421L221.134 39.9161Z" fill="white"/>
<path d="M83.5628 20.52C83.5628 16.5866 83.4408 9.28961 82.3557 7.39076C81.9081 6.63122 80.7688 6.18363 79.1819 6.06156L77.595 5.93949C77.2153 5.49191 77.3509 4.67811 77.7171 4.42041C80.1314 4.54248 82.4778 4.61029 84.9463 4.61029C87.6047 4.61029 89.3272 4.54248 91.6058 4.42041C92.1212 4.73236 92.0534 5.55972 91.7279 5.93949L90.2224 6.06156C88.6355 6.18363 87.4284 6.75329 87.0486 7.58064C86.1534 9.66938 86.1534 16.9664 86.1534 20.52V27.6813C86.1534 33.2016 85.2718 39.0338 81.7182 42.845C78.992 45.8154 74.2992 47.4701 69.6063 47.4701C65.2254 47.4701 60.8444 46.6427 57.7385 43.9843C54.3748 41.1903 52.7879 36.5653 52.7879 29.0105V14.0503C52.7879 7.45857 52.6658 6.37352 48.9766 6.06156L47.3897 5.93949C47.01 5.68179 47.132 4.6103 47.5118 4.42041C50.6856 4.54248 52.8421 4.61029 55.3785 4.61029C57.9826 4.61029 60.0713 4.54248 63.1909 4.42041C63.5706 4.6103 63.6927 5.68179 63.3129 5.93949L61.7939 6.06156C58.1182 6.37352 57.9826 7.45857 57.9826 14.0503V27.7492C57.9826 37.9623 61.1564 44.6896 70.8677 44.6896C80.0635 44.6896 83.5493 37.4604 83.5493 27.817V20.52H83.5628Z" fill="white"/>
<path d="M115.015 36.9592C115.015 43.6188 115.137 44.5682 118.813 44.8937L120.847 45.0836C121.227 45.3413 121.105 46.4806 120.725 46.6705C117.104 46.5485 114.947 46.4806 112.411 46.4806C109.874 46.4806 107.65 46.5485 103.595 46.6705C103.215 46.4806 103.093 45.3956 103.595 45.0836L105.887 44.8937C109.495 44.5818 109.82 43.6188 109.82 36.9592V8.59854C109.82 6.63187 109.82 6.56405 107.921 6.56405H104.436C101.709 6.56405 98.2237 6.68613 96.6368 8.15095C95.1177 9.54797 94.4802 10.945 93.7885 12.5319C93.2867 12.9116 92.3915 12.5997 92.1338 12.0843C93.151 9.23601 94.1005 5.16704 94.548 2.63072C94.7379 2.49509 95.5653 2.44083 95.7552 2.63072C96.1349 4.6652 98.2237 4.59739 101.14 4.59739H126.842C130.274 4.59739 130.843 4.47532 131.793 2.8206C132.105 2.69853 132.81 2.75279 132.932 3.01049C132.24 5.61463 131.793 10.7415 131.983 12.6539C131.725 13.1693 130.653 13.1693 130.328 12.776C130.138 11.1891 129.69 8.84268 128.741 8.15095C127.29 7.0659 124.875 6.56405 121.376 6.56405H116.873C114.974 6.56405 115.029 6.63187 115.029 8.72061V36.9592H115.015Z" fill="white"/>
<path d="M148.775 25.9859C145.737 25.9859 145.601 26.108 145.601 28.0204V36.9722C145.601 43.6317 145.927 44.5269 149.467 44.9066L151.311 45.0965C151.691 45.3542 151.569 46.4935 151.175 46.6834C147.758 46.5614 145.587 46.4935 143.119 46.4935C140.393 46.4935 138.236 46.6156 135.754 46.6834C135.374 46.4935 135.252 45.4763 135.632 45.0965L136.704 44.9066C140.257 44.2692 140.379 43.6317 140.379 36.9722V14.1181C140.379 7.45857 139.932 6.38708 136.636 6.12938L134.981 6.00731C134.601 5.74961 134.723 4.6103 135.117 4.42041C138.223 4.47466 140.379 4.61029 143.105 4.61029C145.574 4.61029 147.73 4.54248 150.47 4.42041C150.85 4.6103 150.972 5.74961 150.592 6.00731L149.385 6.12938C145.71 6.50915 145.574 7.45857 145.574 14.1181V21.4151C145.574 23.3818 145.696 23.4496 148.748 23.4496H166.895C169.933 23.4496 170.069 23.3818 170.069 21.4151V14.1181C170.069 7.45857 169.933 6.50915 166.19 6.12938L164.983 6.00731C164.603 5.74961 164.739 4.6103 165.118 4.42041C168.035 4.54248 170.191 4.61029 172.795 4.61029C175.277 4.61029 177.42 4.54248 180.282 4.42041C180.662 4.6103 180.798 5.74961 180.418 6.00731L179.089 6.12938C175.413 6.50915 175.291 7.45857 175.291 14.1181V36.9586C175.291 43.6181 175.413 44.4455 179.089 44.8931L180.608 45.083C180.987 45.3407 180.865 46.48 180.486 46.6699C177.434 46.5478 175.291 46.48 172.809 46.48C170.205 46.48 167.926 46.5478 165.132 46.6699C164.752 46.48 164.617 45.4627 164.996 45.083L166.204 44.8931C170.083 44.2556 170.083 43.6181 170.083 36.9586V28.0069C170.083 26.108 169.947 25.9724 166.909 25.9724H148.775V25.9859Z" fill="white"/>
<path d="M187.471 30.2323C185.816 30.2323 185.748 30.3544 185.748 31.9549C185.748 38.3567 189.492 43.8091 196.287 43.8091C198.376 43.8091 200.152 43.1716 202.119 40.7031C202.756 40.5133 203.204 40.893 203.258 41.4627C201.17 45.7622 196.599 47.3627 193.303 47.3627C189.18 47.3627 185.938 45.5859 184.107 43.1716C182.208 40.6896 181.435 37.7192 181.435 34.9252C181.435 27.1263 186.576 20.5889 194.185 20.5889C199.637 20.5889 203.19 24.3323 203.19 28.1436C203.19 29.0252 203.068 29.5406 202.933 29.7983C202.743 30.1781 201.848 30.2323 199.189 30.2323H187.471ZM191.39 28.3335C196.083 28.3335 197.48 28.0758 197.996 27.696C198.186 27.5739 198.376 27.3162 198.376 26.4889C198.376 24.7121 197.168 22.4877 193.493 22.4877C189.749 22.4877 186.508 25.9057 186.453 28.008C186.453 28.13 186.453 28.3199 186.901 28.3199H191.39V28.3335Z" fill="white"/>
<path d="M278.494 4.93673C278.494 2.71236 280.298 0.908447 282.549 0.908447C284.787 0.908447 286.577 2.71236 286.577 4.93673C286.577 7.18822 284.787 8.99213 282.549 8.99213C280.298 8.99213 278.494 7.18822 278.494 4.93673ZM285.872 4.93673C285.872 3.10569 284.394 1.61374 282.549 1.61374C280.704 1.61374 279.213 3.10569 279.213 4.93673C279.213 6.78133 280.704 8.27328 282.549 8.27328C284.38 8.28685 285.872 6.79489 285.872 4.93673ZM281.695 5.20799V7.25604H280.949V2.50891H282.481C283.349 2.50891 284.258 2.73948 284.258 3.82454C284.258 4.36707 283.919 4.80109 283.295 4.93673V4.96385C283.946 5.09948 284.027 5.38432 284.095 5.89972C284.163 6.3473 284.217 6.84914 284.38 7.2696H283.431C283.376 6.99834 283.295 6.69994 283.268 6.41512C283.214 6.00822 283.214 5.62845 282.997 5.41144C282.82 5.22156 282.563 5.23512 282.305 5.22156H281.695V5.20799ZM282.468 4.46201C283.159 4.43489 283.322 4.15006 283.322 3.78385C283.322 3.43121 283.159 3.24132 282.576 3.24132H281.681V4.46201H282.468Z" fill="white"/>
<path d="M316.376 25.9869C313.324 25.9869 313.202 26.109 313.202 28.0214V36.9731C313.202 43.6327 313.514 44.5279 317.067 44.9076L318.912 45.0975C319.292 45.3552 319.17 46.4945 318.79 46.6844C315.358 46.5623 313.202 46.4945 310.733 46.4945C308.007 46.4945 305.851 46.6166 303.369 46.6844C302.989 46.4945 302.867 45.4773 303.246 45.0975L304.331 44.9076C307.885 44.2702 308.007 43.6327 308.007 36.9731V14.1191C308.007 7.45955 307.56 6.37449 304.264 6.13035L302.609 6.00828C302.229 5.75058 302.351 4.61127 302.731 4.42139C305.837 4.4892 307.994 4.61127 310.72 4.61127C313.188 4.61127 315.345 4.54346 318.085 4.42139C318.464 4.61127 318.586 5.75058 318.207 6.00828L317 6.13035C313.324 6.51012 313.188 7.45955 313.188 14.1191V21.4161C313.188 23.3828 313.31 23.4506 316.362 23.4506H334.51C337.548 23.4506 337.683 23.3828 337.683 21.4161V14.1191C337.683 7.45955 337.561 6.51012 333.818 6.13035L332.611 6.00828C332.231 5.75058 332.353 4.61127 332.733 4.42139C335.649 4.54346 337.806 4.61127 340.41 4.61127C342.878 4.61127 345.035 4.54346 347.897 4.42139C348.276 4.61127 348.398 5.75058 348.019 6.00828L346.689 6.13035C343.014 6.51012 342.878 7.45955 342.878 14.1191V36.9596C342.878 43.6191 343 44.4465 346.689 44.8941L348.209 45.0839C348.588 45.3416 348.466 46.481 348.086 46.6708C345.048 46.5488 342.878 46.481 340.41 46.481C337.806 46.481 335.527 46.5488 332.733 46.6708C332.353 46.481 332.231 45.4637 332.611 45.0839L333.818 44.8941C337.683 44.2566 337.683 43.6191 337.683 36.9596V28.0078C337.683 26.109 337.561 25.9734 334.51 25.9734H316.376V25.9869Z" fill="white"/>
<path d="M374.195 33.7046C374.195 41.6391 368.743 47.3492 360.808 47.3492C353.511 47.3492 347.801 42.2088 347.801 34.2743C347.801 26.2856 353.823 20.5754 361.31 20.5754C368.417 20.5754 374.195 25.9058 374.195 33.7046ZM360.551 22.4743C356.36 22.4743 353.254 26.4754 353.254 33.4469C353.254 39.2249 355.858 45.4368 361.432 45.4368C367.02 45.4368 368.729 39.6046 368.729 34.7219C368.729 29.3237 366.573 22.4743 360.551 22.4743Z" fill="white"/>
<path d="M435.529 24.1292C434.444 24.1292 434.39 24.3191 434.39 25.6483V37.5161C434.39 41.1917 434.837 44.5554 439.015 44.5554C439.652 44.5554 440.222 44.4333 440.724 44.2434C441.293 44.0536 442.121 43.3618 442.311 43.3618C442.812 43.3618 443.07 44.0536 442.948 44.4469C441.809 45.7761 439.517 47.363 436.289 47.363C430.836 47.363 429.697 44.3248 429.697 40.5136V25.9602C429.697 24.2512 429.629 24.1156 428.368 24.1156H426.591C426.211 23.8579 426.143 23.1662 426.401 22.7864C428.246 22.2168 429.832 21.3894 430.456 20.8197C431.284 20.0602 432.491 18.3512 433.115 17.0763C433.427 16.9542 434.2 16.9542 434.444 17.3882V20.2365C434.444 21.3758 434.512 21.4437 435.583 21.4437H442.623C443.382 22.0133 443.26 23.7223 442.69 24.102H435.529V24.1292Z" fill="white"/>
<path d="M469.762 33.7046C469.762 41.6391 464.31 47.3492 456.375 47.3492C449.078 47.3492 443.368 42.2088 443.368 34.2743C443.368 26.2856 449.39 20.5754 456.877 20.5754C463.984 20.5754 469.762 25.9058 469.762 33.7046ZM456.118 22.4743C451.927 22.4743 448.821 26.4754 448.821 33.4469C448.821 39.2249 451.425 45.4368 456.999 45.4368C462.587 45.4368 464.296 39.6046 464.296 34.7219C464.296 29.3237 462.14 22.4743 456.118 22.4743Z" fill="white"/>
<path d="M474.211 28.2522C474.211 25.7837 474.211 25.4582 472.502 24.3189L471.932 23.9391C471.675 23.6814 471.675 22.9897 472 22.7998C473.465 22.298 477.073 20.6433 478.348 19.6938C478.605 19.6938 478.917 19.8159 479.039 20.1414C478.917 21.6063 478.917 22.5557 478.917 23.1253C478.917 23.5051 479.175 23.8171 479.609 23.8171C482.267 22.1624 485.251 20.5755 488.493 20.5755C493.756 20.5755 495.912 24.1968 495.912 28.4421V39.347C495.912 43.9178 496.034 44.5552 498.326 44.8672L499.723 45.0571C500.171 45.369 500.035 46.4541 499.601 46.644C497.702 46.5219 495.858 46.4541 493.633 46.4541C491.355 46.4541 489.442 46.5219 487.733 46.644C487.286 46.4541 487.164 45.369 487.611 45.0571L488.818 44.8672C491.165 44.4874 491.233 43.9178 491.233 39.347V29.8934C491.233 26.272 489.578 23.6136 485.265 23.6136C482.851 23.6136 480.762 24.6309 479.867 25.838C479.039 26.923 478.917 27.8047 478.917 29.6493V39.3605C478.917 43.9313 479.039 44.501 481.332 44.8808L482.471 45.0706C482.918 45.3826 482.783 46.4677 482.349 46.6575C480.64 46.5355 478.795 46.4677 476.571 46.4677C474.292 46.4677 472.38 46.5355 470.603 46.6575C470.155 46.4677 470.033 45.3826 470.481 45.0706L471.81 44.8808C474.157 44.5688 474.224 43.9313 474.224 39.3605V28.2522H474.211Z" fill="white"/>
<path d="M383.337 37.1226C383.337 41.5035 384.422 44.4196 389.237 44.4196C390.946 44.4196 392.981 43.7279 394.378 42.5207C395.205 41.7612 395.653 40.8118 395.653 38.8451V28.4421C395.653 24.3189 395.205 24.1968 393.306 23.4237L392.479 23.1118C392.031 22.8541 392.031 21.9725 392.547 21.7148C395.083 21.6469 398.569 21.2129 399.966 20.5754C400.278 20.6433 400.468 20.7653 400.535 21.023C400.413 22.2302 400.346 24.1968 400.346 26.5433V37.204C400.346 42.2223 400.535 44.1212 402.312 44.1212C403.072 44.1212 403.899 43.9991 404.781 43.8092C405.161 44.1212 405.228 45.3961 404.713 45.6538C402.244 46.1557 398.555 46.7932 396.399 48.0003C396.087 48.0003 395.761 47.8104 395.639 47.5527V44.9486C395.639 44.3789 395.449 44.0669 395.07 44.0669C393.171 45.2741 390.065 47.3628 386.321 47.3628C380.733 47.3628 378.644 44.5688 378.644 39.4283V28.8354C378.644 24.8343 378.644 24.2646 376.746 23.4373L375.986 23.1253C375.606 22.8134 375.674 21.9182 376.108 21.7283C379.024 21.6605 381.506 21.0908 382.89 20.589C383.27 20.6568 383.459 20.7789 383.527 21.0366C383.405 22.1216 383.337 23.4508 383.337 26.5568V37.1226Z" fill="white"/>
<path d="M422.291 21.7148C422.861 23.1118 423.309 25.1463 423.309 26.8553C423.051 27.3029 422.101 27.4249 421.789 27.0452C420.704 24.2512 418.806 22.4201 416.201 22.4201C413.733 22.4201 412.146 24.007 412.146 26.2856C412.146 28.8898 414.804 30.2868 417.029 31.5482C420.392 33.447 423.498 35.6036 423.498 40.1066C423.498 44.9215 419.063 47.3358 414.357 47.3358C411.373 47.3358 409.148 46.6983 407.575 45.4369C407.073 44.2298 406.68 41.1238 406.816 39.0351C407.128 38.6553 407.955 38.5875 408.28 38.9673C409.366 42.453 411.386 45.5047 415.008 45.5047C417.286 45.5047 419.253 44.1755 419.253 41.4493C419.253 38.5332 416.717 36.9463 414.37 35.6171C410.695 33.5284 408.091 31.304 408.091 27.8183C408.091 23.1932 411.902 20.5891 416.717 20.5891C419.375 20.5755 421.722 21.1994 422.291 21.7148Z" fill="white"/>
<path d="M16.4663 22.2568H11.0952V29.8929H16.4663V22.2568Z" fill="white"/>
<path d="M25.1317 23.4099H17.4956V28.7403H25.1317V23.4099Z" fill="white"/>
<path d="M31.5473 22.2568H26.1763V29.8929H31.5473V22.2568Z" fill="white"/>
<path d="M24.0206 7.35067C24.0206 5.85871 22.8135 4.55664 21.3215 4.55664C19.8296 4.55664 18.6089 5.88583 18.6089 7.37779V22.3652H24.0071L24.0206 7.35067Z" fill="white"/>
<path d="M24.0206 44.7992C24.0206 46.2911 22.8135 47.5932 21.3215 47.5932C19.8296 47.5932 18.6089 46.264 18.6089 44.772V29.7847H24.0071L24.0206 44.7992Z" fill="white"/>
<path d="M16.4928 7.35067C16.4928 5.85871 15.2857 4.55664 13.7937 4.55664C12.3017 4.55664 11.0811 5.88583 11.0811 7.37779V14.824H16.4792L16.4928 7.35067Z" fill="white"/>
<path d="M31.5616 7.35067C31.5616 5.85871 30.3545 4.55664 28.8625 4.55664C27.3706 4.55664 26.1499 5.88583 26.1499 7.37779V14.824H31.5481L31.5616 7.35067Z" fill="white"/>
<path d="M16.4928 44.7587C16.4928 46.2507 15.2857 47.5527 13.7937 47.5527C12.3017 47.5527 11.0811 46.2235 11.0811 44.7316V37.3125H16.4792L16.4928 44.7587Z" fill="white"/>
<path d="M31.5616 44.7587C31.5616 46.2507 30.3545 47.5527 28.8625 47.5527C27.3706 47.5527 26.1499 46.2235 26.1499 44.7316V37.3125H31.5481L31.5616 44.7587Z" fill="white"/>
<path d="M2.7669 21.2395H17.6051V15.8413H17.3609H2.73977C1.23425 15.8413 0 17.0484 0 18.5404C0 20.0188 1.19357 21.2259 2.67196 21.253C2.69908 21.2395 2.75334 21.2395 2.7669 21.2395C2.78046 21.2395 2.75334 21.2395 2.7669 21.2395Z" fill="white"/>
<path d="M2.7669 36.3222H17.6051V30.9241H17.3609H2.73977C1.23425 30.9241 0 32.1312 0 33.6232C0 35.1151 1.19357 36.3087 2.67196 36.3358C2.69908 36.3222 2.75334 36.3222 2.7669 36.3222C2.78046 36.3222 2.75334 36.3222 2.7669 36.3222Z" fill="white"/>
<path d="M39.8763 36.3222H25.0381V30.9241H25.2822H39.9034C41.3953 30.9241 42.6432 32.1312 42.6432 33.6232C42.6432 35.1151 41.4496 36.3087 39.9712 36.3358C39.9576 36.3222 39.8898 36.3222 39.8763 36.3222Z" fill="white"/>
<path d="M2.7669 28.781H10.0775V23.3828H9.83334H2.73977C1.23425 23.3828 0 24.5899 0 26.0819C0 27.5603 1.19357 28.7674 2.67196 28.781C2.69908 28.781 2.75334 28.781 2.7669 28.781C2.78046 28.781 2.75334 28.781 2.7669 28.781Z" fill="white"/>
<path d="M39.8887 28.781H32.5781V23.3828H32.8223H39.9158C41.4213 23.3828 42.6556 24.5899 42.6556 26.0819C42.6556 27.5603 41.462 28.7674 39.9836 28.781C39.9565 28.781 39.8887 28.781 39.8887 28.781Z" fill="white"/>
<path d="M39.8763 21.2395H25.0381V15.8413H25.2822H39.9034C41.3953 15.8413 42.6432 17.0484 42.6432 18.5404C42.6432 20.0188 41.4496 21.2259 39.9712 21.253C39.9576 21.2395 39.8898 21.2395 39.8763 21.2395Z" fill="white"/>
</svg>
