<svg xmlns="http://www.w3.org/2000/svg" width="282" height="71" viewBox="0 0 282 71" fill="none">
            <g clip-path="url(#clip0_913_3405)">
               <path d="M20.0085 32.1433V21.7177C19.7325 21.7028 19.449 21.7028 19.173 21.6953V33.8162C19.173 33.8162 19.173 33.8162 19.173 33.8236C21.9706 33.861 24.7384 34.3165 27.4017 35.1679C25.4695 33.51 22.9777 32.5615 20.4263 32.5615C20.195 32.5615 20.0085 32.3748 20.0085 32.1433Z" fill="white"/>
               <path d="M37.5553 33.8236C37.5553 33.8236 37.5553 33.8236 37.5553 33.8162V21.6953C37.2792 21.6953 36.9957 21.7028 36.7197 21.7177V32.1433C36.7197 32.3748 36.5332 32.5615 36.3019 32.5615C33.7505 32.5615 31.2588 33.5025 29.3265 35.1679C31.9899 34.3165 34.7576 33.8684 37.5553 33.8236Z" fill="white"/>
               <path d="M78.9152 65.3236H76.804V63.9121H82.5708V65.3236H80.452V70.8725H78.9152V65.3236Z" fill="white"/>
               <path d="M83.9883 63.9121H85.5176V66.6679H88.3451V63.9121H89.8745V70.8725H88.3451V68.0794H85.5176V70.8725H83.9883V63.9121Z" fill="white"/>
               <path d="M91.7843 63.9121H97.0364V65.2713H93.3062V66.6828H96.5887V68.0495H93.3062V69.5132H97.0886V70.8725H91.7843V63.9121Z" fill="white"/>
               <path d="M101.818 67.8927V63.9121H103.348V67.8553C103.348 68.9905 103.915 69.5805 104.847 69.5805C105.78 69.5805 106.347 69.0129 106.347 67.9076V63.9121H107.876V67.8478C107.876 69.9539 106.69 70.9919 104.825 70.9919C102.96 70.9919 101.811 69.9464 101.811 67.8927" fill="white"/>
               <path d="M109.689 63.9121H111.099L114.359 68.1988V63.9121H115.874V70.8725H114.568L111.196 66.4438V70.8725H109.689V63.9121Z" fill="white"/>
               <path d="M119.388 63.9121H117.858V70.8799H119.388V63.9121Z" fill="white"/>
               <path d="M120.775 63.9121H122.469L124.289 68.8187L126.109 63.9121H127.758L124.945 70.9247H123.588L120.775 63.9121Z" fill="white"/>
               <path d="M129.078 63.9121H134.323V65.2713H130.593V66.6828H133.875V68.0495H130.593V69.5132H134.375V70.8725H129.078V63.9121Z" fill="white"/>
               <path d="M139.068 67.2952C139.814 67.2952 140.239 66.8994 140.239 66.3094V66.287C140.239 65.6298 139.784 65.2937 139.038 65.2937H137.516V67.2952H139.068ZM135.987 63.9121H139.165C140.053 63.9121 140.739 64.1586 141.194 64.6216C141.582 65.0099 141.791 65.5551 141.791 66.2123V66.2347C141.791 67.3624 141.187 68.0644 140.299 68.393L142 70.8799H140.209L138.717 68.6544H137.516V70.8799H135.987V63.9121Z" fill="white"/>
               <path d="M142.94 69.8656L143.842 68.7827C144.469 69.2981 145.126 69.6267 145.924 69.6267C146.551 69.6267 146.931 69.3802 146.931 68.9695V68.947C146.931 68.5587 146.692 68.3571 145.528 68.0658C144.126 67.7073 143.223 67.319 143.223 65.9374V65.915C143.223 64.6528 144.238 63.8164 145.655 63.8164C146.67 63.8164 147.535 64.1375 148.244 64.6977L147.446 65.8552C146.827 65.4295 146.222 65.1682 145.633 65.1682C145.044 65.1682 144.738 65.437 144.738 65.7731V65.7955C144.738 66.251 145.036 66.4004 146.237 66.7141C147.647 67.08 148.445 67.5878 148.445 68.8052V68.8276C148.445 70.2092 147.394 70.9859 145.887 70.9859C144.835 70.9859 143.768 70.6199 142.932 69.8731" fill="white"/>
               <path d="M151.623 63.9121H150.094V70.8799H151.623V63.9121Z" fill="white"/>
               <path d="M155.234 65.3236H153.116V63.9121H158.882V65.3236H156.764V70.8725H155.234V65.3236Z" fill="white"/>
               <path d="M162.262 68.1316L159.584 63.9121H161.374L163.038 66.7052L164.724 63.9121H166.462L163.791 68.1018V70.8725H162.262V68.1316Z" fill="white"/>
               <path d="M176.384 67.415V67.3926C176.384 66.1977 175.511 65.2045 174.273 65.2045C173.035 65.2045 172.184 66.1828 172.184 67.3777V67.4001C172.184 68.595 173.057 69.5883 174.288 69.5883C175.519 69.5883 176.377 68.6099 176.377 67.415M170.58 67.415V67.3926C170.58 65.4136 172.139 63.793 174.288 63.793C176.437 63.793 177.981 65.3912 177.981 67.3777V67.4001C177.981 69.3792 176.422 70.9998 174.273 70.9998C172.124 70.9998 170.588 69.3941 170.588 67.415" fill="white"/>
               <path d="M179.592 63.9121H184.889V65.3012H181.122V66.7874H184.441V68.1764H181.122V70.8725H179.592V63.9121Z" fill="white"/>
               <path d="M191.208 65.3236H189.089V63.9121H194.856V65.3236H192.737V70.8725H191.208V65.3236Z" fill="white"/>
               <path d="M196.273 63.9121H201.526V65.2713H197.795V66.6828H201.078V68.0495H197.795V69.5132H201.578V70.8725H196.273V63.9121Z" fill="white"/>
               <path d="M205.084 67.3325L202.757 63.9121H204.547L205.994 66.1675L207.479 63.9121H209.217L206.89 67.3101L209.314 70.8725H207.531L205.964 68.4901L204.398 70.8725H202.652L205.084 67.3325Z" fill="white"/>
               <path d="M214.506 67.9614L213.581 65.6985L212.656 67.9614H214.506ZM212.895 63.8613H214.305L217.289 70.8814H215.685L215.051 69.3206H212.104L211.47 70.8814H209.911L212.895 63.8613Z" fill="white"/>
               <path d="M218.028 69.8656L218.93 68.7827C219.557 69.2981 220.214 69.6267 221.012 69.6267C221.639 69.6267 222.019 69.3802 222.019 68.9695V68.947C222.019 68.5587 221.78 68.3571 220.616 68.0658C219.214 67.7073 218.311 67.319 218.311 65.9374V65.915C218.311 64.6528 219.326 63.8164 220.743 63.8164C221.758 63.8164 222.623 64.1375 223.332 64.6977L222.534 65.8552C221.915 65.4295 221.31 65.1682 220.721 65.1682C220.132 65.1682 219.826 65.437 219.826 65.7731V65.7955C219.826 66.251 220.124 66.4004 221.325 66.7141C222.735 67.08 223.533 67.5878 223.533 68.8052V68.8276C223.533 70.2092 222.482 70.9859 220.975 70.9859C219.923 70.9859 218.856 70.6199 218.02 69.8731" fill="white"/>
               <path d="M232.344 67.9614L231.419 65.6985L230.494 67.9614H232.344ZM230.733 63.8613H232.143L235.127 70.8814H233.53L232.896 69.3206H229.957L229.323 70.8814H227.763L230.748 63.8613H230.733Z" fill="white"/>
               <path d="M237.171 65.3236H235.052V63.9121H240.819V65.3236H238.7V70.8725H237.171V65.3236Z" fill="white"/>
               <path d="M247.093 65.3236H244.974V63.9121H250.741V65.3236H248.623V70.8725H247.093V65.3236Z" fill="white"/>
               <path d="M254.113 68.1316L251.443 63.9121H253.233L254.889 66.7052L256.583 63.9121H258.321L255.65 68.1018V70.8725H254.113V68.1316Z" fill="white"/>
               <path d="M259.522 63.9121H261.051V69.4834H264.521V70.8725H259.522V63.9121Z" fill="white"/>
               <path d="M265.923 63.9121H271.175V65.2713H267.445V66.6828H270.727V68.0495H267.445V69.5132H271.22V70.8725H265.923V63.9121Z" fill="white"/>
               <path d="M275.912 67.2952C276.658 67.2952 277.084 66.8994 277.084 66.3094V66.287C277.084 65.6298 276.629 65.2937 275.883 65.2937H274.361V67.2952H275.912ZM272.831 63.9121H276.009C276.897 63.9121 277.584 64.1586 278.039 64.6216C278.427 65.0099 278.635 65.5551 278.635 66.2123V66.2347C278.635 67.3624 278.031 68.0644 277.143 68.393L278.844 70.8799H277.054L275.562 68.6544H274.361V70.8799H272.831V63.9121Z" fill="white"/>
               <path d="M54.8035 12.4569C54.699 20.6719 54.3111 30.164 51.0584 38.9316C49.2903 43.6963 46.7762 47.8934 43.5906 51.396C40.0022 55.3392 35.4365 58.5505 30.0203 60.9478L28.3716 61.6797L26.7154 60.9478C21.2992 58.5505 16.7335 55.3392 13.1525 51.396C9.96698 47.8934 7.45286 43.6963 5.68476 38.9316C2.43206 30.164 2.04413 20.6719 1.93968 12.4569L1.90984 10.1791L3.90175 8.90207C11.2502 4.36889 19.7102 1.9716 28.3716 1.9716C37.033 1.9716 45.493 4.36889 52.8265 8.8946L54.8333 10.1194L54.8035 12.4495V12.4569ZM28.3716 0C19.2775 0 10.3997 2.51678 2.69317 7.28148L0 8.99916L0.0373016 12.0835C0.149206 20.5748 0.544603 30.403 3.93905 39.5515C5.80413 44.585 8.46 49.0137 11.8321 52.7179C15.6144 56.8777 20.4263 60.2682 26.1335 62.7925L28.3716 63.7857L30.6097 62.7925C36.3094 60.2682 41.1213 56.8777 44.9111 52.7179C48.2832 49.0137 50.939 44.585 52.8041 39.5515C56.1986 30.403 56.6014 20.5748 56.7059 12.0835L56.7432 8.92448L54.0351 7.27401C46.3435 2.51678 37.4657 0 28.3716 0Z" fill="white"/>
               <path d="M27.9463 23.1286C27.4987 22.6805 27.0138 22.2772 26.4916 21.9187C24.8279 20.7761 22.8584 20.104 20.8441 20.0293V31.7394C23.4478 31.8365 25.9694 32.8447 27.9463 34.5474V23.1361V23.1286Z" fill="white"/>
               <path d="M35.8766 20.0215C33.8549 20.1036 31.8854 20.7683 30.2292 21.9109C29.7144 22.2694 29.2295 22.6727 28.7819 23.1208V34.5396C30.7588 32.8369 33.2804 31.8287 35.8841 31.7316V20.0215H35.8766Z" fill="white"/>
               <path d="M46.5375 30.888C46.3734 28.8566 47.1119 26.8701 48.5592 25.4437C49.2232 27.5198 48.3951 29.7528 46.5375 30.888ZM45.217 35.3091C45.5975 33.3077 46.8359 31.59 48.6264 30.6042C48.7085 32.7774 47.3134 34.7117 45.217 35.3091ZM42.9193 39.3644C43.7623 37.5122 45.3812 36.1456 47.3507 35.6153C46.9105 37.7438 45.0902 39.2822 42.9193 39.3644ZM39.5696 42.8893C40.8453 41.2911 42.7477 40.3651 44.7918 40.3502C43.8369 42.2919 41.6883 43.3374 39.5696 42.8893ZM35.3769 45.4883C37.0107 44.2859 39.0772 43.8751 41.0467 44.383C39.6367 46.026 37.3016 46.4815 35.3769 45.4883ZM30.5277 46.9894C32.4226 46.2351 34.5413 46.377 36.3243 47.3702C34.5339 48.595 32.1466 48.4382 30.5277 46.9894ZM31.1319 55.4359L28.3716 53.4269L25.6113 55.4359L26.6632 52.1872L23.9029 50.1783H27.3123L28.3642 46.9296L29.4161 50.1783H32.8254L30.0651 52.1872L31.117 55.4359H31.1319ZM20.4488 47.3702C22.2318 46.377 24.3431 46.2351 26.2454 46.9894C24.6266 48.4382 22.2467 48.595 20.4488 47.3702ZM15.7189 44.383C17.6885 43.8826 19.755 44.2859 21.3888 45.4883C19.464 46.4815 17.1289 46.026 15.7189 44.383ZM11.9739 40.3576C14.018 40.3726 15.9204 41.2986 17.1961 42.8968C15.0773 43.3449 12.9288 42.3068 11.9739 40.3576ZM9.41497 35.6228C11.3845 36.1456 12.9959 37.5122 13.8464 39.3718C11.6754 39.2897 9.85512 37.7512 9.41497 35.6228ZM11.5486 35.3166C9.45973 34.7191 8.05719 32.7849 8.14671 30.6116C9.92973 31.5974 11.1756 33.3077 11.5486 35.3166ZM8.19893 25.4586C9.6537 26.885 10.3923 28.8716 10.2207 30.9029C8.36306 29.7752 7.52751 27.5348 8.19893 25.4586ZM9.35528 20.4997C10.4221 22.2398 10.6683 24.3458 10.0267 26.2801C8.48989 24.7342 8.21385 22.3593 9.35528 20.4997ZM11.4815 16.1159C12.1604 18.0427 11.9515 20.1562 10.907 21.9112C9.73576 20.074 9.97449 17.6917 11.4815 16.1159ZM14.4656 12.4938C14.6969 14.5177 14.018 16.5267 12.6005 17.9904C11.8769 15.9367 12.6453 13.6813 14.4656 12.4938ZM18.8299 9.61859C18.3823 11.6051 17.0767 13.278 15.2639 14.1966C15.2639 12.0233 16.7261 10.1414 18.8299 9.61859ZM23.7462 9.73061C22.5004 11.3437 20.6204 12.3146 18.5837 12.4042C19.4864 10.4177 21.6051 9.31239 23.7462 9.73061ZM16.0472 37.5346C17.2707 38.752 17.9197 40.4398 17.8227 42.1649C16.077 41.3434 15.3012 39.3121 16.0472 37.5346ZM16.1367 14.6895C17.1812 13.0689 19.2999 12.5685 20.9635 13.5543C19.5908 14.6073 17.8377 15.0181 16.1367 14.6895ZM13.2421 18.2891C13.6972 16.4146 15.5324 15.2496 17.4199 15.6305C16.4724 17.0718 14.9505 18.0427 13.2421 18.2891ZM11.6232 22.0606C11.6978 20.1338 13.2645 18.6177 15.1893 18.6177C14.5477 20.2234 13.2496 21.4781 11.6232 22.0606ZM13.9658 33.92C14.8685 35.3913 15.0997 37.1836 14.5999 38.8416C13.1004 37.6317 12.8243 35.4734 13.9658 33.92ZM10.8175 26.3623C10.437 24.4728 11.6083 22.6356 13.4808 22.1801C13.2346 23.8903 12.2648 25.4138 10.8175 26.3623ZM11.0637 30.7013C10.2878 28.9388 11.0339 26.8925 12.7572 26.0411C12.884 27.7663 12.2648 29.4615 11.0637 30.7013ZM12.9885 30.059C13.4958 31.7095 13.2719 33.5018 12.3693 34.9805C11.2204 33.4346 11.4889 31.2763 12.9885 30.059ZM21.8289 44.6145C19.9415 44.2187 18.7105 42.4263 19.0313 40.5219C20.5085 41.4181 21.5231 42.9117 21.8289 44.6145ZM26.4767 45.8841C26.417 45.8841 26.3648 45.8841 26.3126 45.8841C24.4624 45.8841 22.9107 44.4801 22.754 42.613C24.4027 43.1209 25.7605 44.3083 26.4842 45.8841M34.0116 42.613C33.8475 44.4801 32.3032 45.8841 30.4531 45.8841C30.4008 45.8841 30.3412 45.8841 30.2889 45.8841C31.0051 44.3083 32.3629 43.1209 34.0191 42.613M34.9367 44.607C35.2426 42.9043 36.2646 41.4181 37.7418 40.5145C38.0551 42.4188 36.8242 44.2112 34.9367 44.607ZM36.3169 19.1779C36.5481 19.1779 36.7346 19.3646 36.7346 19.5961V20.8806C37.1524 20.8657 37.5702 20.8507 37.988 20.8507C38.2192 20.8507 38.4058 21.0374 38.4058 21.269V22.9418H39.2413C39.4726 22.9418 39.6591 23.1285 39.6591 23.36V35.1075C39.6591 35.3241 39.495 35.5033 39.2786 35.5257L30.9231 36.2875C30.0502 36.3621 30.0502 37.1687 29.1177 37.1687H27.648C26.708 37.1687 26.7229 36.3621 25.8426 36.2875L17.487 35.5257C17.2707 35.5033 17.1066 35.3241 17.1066 35.1075V23.36C17.1066 23.1285 17.2931 22.9418 17.5243 22.9418H18.3599V21.269C18.3599 21.0374 18.5464 20.8507 18.7777 20.8507C19.1954 20.8507 19.6132 20.8582 20.031 20.8806V19.5961C20.031 19.3646 20.2175 19.1779 20.4488 19.1779C23.3807 19.1779 26.2529 20.328 28.3866 22.3518C30.5202 20.328 33.3924 19.1779 36.3243 19.1779M38.1969 12.3893C36.1602 12.3071 34.2802 11.3288 33.0343 9.71568C35.1754 9.29746 37.2942 10.3953 38.1969 12.3893ZM41.5242 14.1816C39.7039 13.2631 38.4058 11.5977 37.9581 9.60365C40.0694 10.1264 41.5316 12.0084 41.5242 14.1816ZM42.3224 12.4789C44.1427 13.6663 44.9112 15.9217 44.1875 17.9755C42.77 16.5117 42.0912 14.5028 42.3224 12.4789ZM42.8073 33.9126C43.9488 35.466 43.6727 37.6243 42.1732 38.8341C41.6734 37.1836 41.9046 35.3913 42.8073 33.9126ZM45.1499 22.0531C43.5235 21.4706 42.2254 20.2159 41.5839 18.6103C43.5086 18.6103 45.0753 20.1263 45.1499 22.0531ZM35.817 13.5469C37.4732 12.5685 39.5919 13.0614 40.6364 14.682C38.9429 15.0106 37.1823 14.5999 35.817 13.5469ZM38.9578 42.1575C38.8608 40.4323 39.5024 38.7445 40.7334 37.5272C41.4794 39.3046 40.7035 41.336 38.9578 42.1575ZM39.3458 15.623C41.2332 15.2421 43.0685 16.4072 43.531 18.2817C41.8226 18.0352 40.3007 17.0644 39.3458 15.623ZM45.9556 26.3548C44.5158 25.4063 43.5459 23.8828 43.2923 22.1726C45.1648 22.6282 46.3286 24.4653 45.9556 26.3548ZM44.4039 34.9731C43.5086 33.4944 43.2773 31.702 43.7846 30.0515C45.2842 31.2688 45.5527 33.4272 44.4039 34.9731ZM44.0159 26.0337C45.7467 26.885 46.4853 28.9313 45.7094 30.6938C44.5083 29.4541 43.8891 27.7588 44.0159 26.0337ZM45.3066 16.101C46.8135 17.6768 47.0523 20.0516 45.881 21.8963C44.8366 20.1413 44.6277 18.0278 45.3066 16.101ZM46.7613 26.2652C46.1197 24.3234 46.3659 22.2174 47.4327 20.4848C48.5742 22.3444 48.2981 24.7192 46.7613 26.2652ZM28.3716 4.22656C20.225 4.22656 12.2723 6.48195 5.37147 10.7463L5.31179 10.7836L4.06592 11.5827L4.0883 13.0614C4.18528 20.903 4.55084 29.9619 7.62449 38.2516C9.28068 42.7101 11.6232 46.6309 14.5999 49.8945C17.9496 53.5763 22.2169 56.5785 27.2973 58.8264L28.3716 59.3044L29.4459 58.8264C34.5264 56.5785 38.7937 53.5763 42.1434 49.8945C45.1126 46.6234 47.4626 42.7101 49.1188 38.2516C52.1924 29.9619 52.558 20.903 52.6624 13.0614L52.6848 11.5454L51.3718 10.7463C44.4785 6.48195 36.5183 4.23403 28.3791 4.23403" fill="white"/>
               <path d="M76.5354 31.515V7.41513L71.4176 6.63097L71.716 4.21875L79.9597 4.39799L88.8076 4.21875L89.106 6.63097L84.2867 7.41513V32.0601C84.2867 39.4088 87.4797 43.6881 94.1566 43.6881C100.356 43.6881 103.728 39.4088 103.728 31.8809V7.41513L98.4911 6.63097L98.7895 4.21875L106.496 4.39799L112.591 4.42786V6.72806L108.779 7.41513V31.515C108.779 39.4088 105.586 44.7112 93.612 47.5417C80.9743 47.5417 76.5205 41.0966 76.5205 31.515" fill="white"/>
               <path d="M120.842 44.1063L127.765 43.3221V7.41513L119.455 7.47488L116.567 15.548H113.919V4.21875L131.675 4.40545L149.191 4.21875V15.548H146.483L143.656 7.47488L135.345 7.41513V43.3221L142.03 44.1063L141.724 46.5185L131.555 46.3393L121.141 46.5185L120.842 44.1063Z" fill="white"/>
               <path d="M157.547 44.1453L164.47 43.3611V7.40927L156.159 7.46902L153.265 15.5496H150.616V4.21289L168.394 4.39213L185.926 4.21289V15.5496H183.218L180.383 7.46902L172.065 7.40927V43.3611L178.757 44.1453L178.458 46.5575L168.267 46.3782L157.845 46.5575L157.547 44.1453Z" fill="white"/>
               <path d="M190.477 53.7413L196.057 53.7339L198.556 47.3934L187.433 20.8589L184.001 20.254L184.3 17.8418L191.715 18.0285L198.28 17.8418L198.586 20.254L194.908 20.8589L200.996 37.6922L201.6 39.4771L208.464 20.9187L205.636 20.3138L205.935 17.8418L211.358 18.0285L216.424 17.8418L216.722 20.3138L212.985 20.9187L203.764 45.2351L198.609 58.8496H190.477V53.7413Z" fill="white"/>
               <path d="M215.999 44.1443L219.856 43.4796V7.82649L215.939 7.94598L215.641 5.47402L223.414 3.66672L226.786 3.42773V43.4796L230.889 44.1443L230.584 46.5565L223.474 46.3772L216.304 46.5565L215.999 44.1443Z" fill="white"/>
               <path d="M237.753 28.6413L248.481 28.0961C248.481 23.4509 247.638 20.374 243.482 20.374C240.289 20.374 238.118 23.3314 237.76 28.6413M255.777 42.2184C252.703 44.5112 249.085 46.1392 244.81 47.4088C237.096 47.4088 230.583 42.0392 230.583 32.8683C230.583 24.6607 235.104 19.2986 244.624 17.0059C252.763 17.0059 255.71 22.1365 255.71 28.4695V31.3074H237.693C237.992 37.8794 241.311 42.2259 247.093 42.2259C249.682 42.2259 252.636 40.9563 254.628 39.6942L255.777 42.2259V42.2184Z" fill="white"/>
               <path d="M256.68 44.1453L260.656 43.4807V21.9499L256.68 22.2486L256.381 19.7767L263.916 17.9694L266.692 17.7304L267.05 26.3561L273.682 17.3047H278.867V24.3621H273.622C272.235 24.7878 270.19 26.5354 268.557 28.4622L267.535 29.6645V43.3612L273.741 43.9661L273.443 46.5576L264.103 46.3783L256.993 46.5576L256.695 44.1453H256.68Z" fill="white"/>
               <path d="M276.696 43.8821H275.689V43.3594H278.277V43.8821H277.263V46.5558H276.696V43.8821Z" fill="white"/>
               <path d="M278.867 43.3594H279.464L280.433 44.8679L281.403 43.3594H282V46.5558H281.448V44.263L280.441 45.7716H280.418L279.426 44.2705V46.5558H278.867V43.3594Z" fill="white"/>
            </g>
            <defs>
               <clipPath id="clip0_913_3405">
                  <rect width="282" height="71" fill="white"/>
               </clipPath>
            </defs></svg>
