<?xml version="1.0" encoding="UTF-8"?>
<svg xmlns="http://www.w3.org/2000/svg" version="1.1" viewBox="0 0 127.9 45.3">
  <defs>
    <style>
      .cls-1 {
        fill: #fff;
      }

      .cls-2 {
        fill: #f47920;
      }
    </style>
  </defs>
  <!-- Generator: Adobe Illustrator 28.7.10, SVG Export Plug-In . SVG Version: 1.2.0 Build 236)  -->
  <g>
    <g id="Layer_2">
      <path class="cls-1" d="M117.2,27.2h-5.1v-6.1h5.1c2.3,0,3.6,1.2,3.6,3s-1.3,3-3.6,3M112.1,10.8h4.6c2.3,0,3.4,1.1,3.4,2.8s-1.3,2.8-3.3,2.8h-4.6v-5.6ZM121.9,18.5c2.1-.7,3.8-2.9,3.8-5.5,0-4-3-6.9-8.1-6.9h-11.2v25.9h11.9c4.9,0,8.1-3.1,8.1-7.3s-2.3-5.5-4.6-6.1"/>
      <polygon class="cls-1" points="98.5 31.9 98.5 14.7 91.8 31.9 87.1 31.9 80.4 15 80.4 31.9 74.9 31.9 74.9 12.7 74.9 11.5 80.4 6 82.4 6 89.5 23.5 96.3 6 104.2 6 104.2 31.9 98.5 31.9"/>
      <path class="cls-1" d="M124.1,38.7v1.5h1.5v-1.5h.8v3.8h-.8v-1.6h-1.5v1.6h-.8v-3.8h.8ZM121.7,39.7c0,0-.1-.1-.2-.2,0,0-.2-.1-.3-.1,0,0-.2,0-.3,0-.2,0-.3,0-.5.1-.1,0-.2.2-.3.3,0,.1-.1.3-.2.4,0,.2,0,.3,0,.5s0,.3,0,.5c0,.2,0,.3.2.4,0,.1.2.2.3.3.1,0,.3.1.5.1s.5,0,.6-.2c.1-.2.2-.4.3-.6h.8c0,.2,0,.5-.2.6,0,.2-.2.4-.4.5-.1.1-.3.2-.5.3-.2,0-.4.1-.6.1s-.6,0-.8-.2c-.2-.1-.4-.2-.6-.4-.2-.2-.3-.4-.4-.6s-.1-.5-.1-.8,0-.5.1-.8c0-.2.2-.5.4-.6.2-.2.4-.3.6-.4.2-.1.5-.2.8-.2s.4,0,.6,0c.2,0,.4.1.5.3.1.1.3.3.4.4,0,.2.2.4.2.6h-.8c0,0,0-.2,0-.3M116,38.7l1.6,2.5h0v-2.5h.8v3.8h-.8l-1.6-2.5h0v2.5h-.8v-3.8h.8ZM113.3,38.7l1.4,3.8h-.9l-.3-.8h-1.4l-.3.8h-.8l1.4-3.8h.9ZM113.4,41l-.5-1.4h0l-.5,1.4h1ZM109.5,38.7c.2,0,.3,0,.5,0,.1,0,.3.1.4.2s.2.2.2.3c0,.1,0,.3,0,.4,0,.2,0,.4-.1.6,0,.2-.2.3-.5.4h0c.1,0,.2,0,.3.1,0,0,.1.1.2.2,0,0,0,.2,0,.3,0,0,0,.2,0,.3,0,0,0,.1,0,.2,0,0,0,.2,0,.3,0,0,0,.2,0,.2,0,0,0,.1,0,.2h-.8c0-.1,0-.3,0-.4,0-.2,0-.3,0-.5,0-.2,0-.3-.2-.4s-.2-.1-.5-.1h-.8v1.5h-.8v-3.8h2ZM109.2,40.4c.2,0,.3,0,.4-.1,0,0,.1-.2.1-.4s0-.3-.1-.4c0,0-.2-.1-.4-.1h-.9v1.1h.9ZM105.4,41.8c0,0,.2,0,.2,0,0,0,.1,0,.2,0,0,0,.1,0,.1-.2,0,0,0-.1,0-.2,0-.2,0-.3-.2-.4-.1,0-.3-.1-.4-.1h-.9v1h.9ZM105.4,38.7c.2,0,.3,0,.5,0,.1,0,.3,0,.4.2.1,0,.2.2.2.3,0,.1,0,.3,0,.4s0,.4-.1.5c0,.1-.2.2-.4.3.2,0,.4.2.5.4.1.2.2.4.2.6s0,.4-.1.5c0,.1-.2.3-.3.3-.1,0-.3.2-.4.2-.2,0-.3,0-.5,0h-1.8v-3.8h1.8ZM105.3,40.2c.1,0,.3,0,.4-.1,0,0,.1-.2.1-.3s0-.2,0-.2c0,0,0-.1-.1-.1,0,0-.1,0-.2,0,0,0-.1,0-.2,0h-.8v.9h.8ZM99.6,38.7v3.1h1.9v.7h-2.7v-3.8h.8ZM96.9,38.7l1.4,3.8h-.9l-.3-.8h-1.4l-.3.8h-.8l1.4-3.8h.9ZM97,41l-.5-1.4h0l-.5,1.4h1ZM93.4,39.7c0,0-.1-.1-.2-.2,0,0-.2-.1-.3-.1,0,0-.2,0-.3,0-.2,0-.3,0-.5.1-.1,0-.2.2-.3.3,0,.1-.1.3-.2.4,0,.2,0,.3,0,.5s0,.3,0,.5c0,.2,0,.3.2.4,0,.1.2.2.3.3.1,0,.3.1.5.1s.5,0,.6-.2c.1-.2.2-.4.3-.6h.8c0,.2,0,.5-.2.6,0,.2-.2.4-.4.5-.1.1-.3.2-.5.3-.2,0-.4.1-.6.1s-.6,0-.8-.2c-.2-.1-.4-.2-.6-.4-.2-.2-.3-.4-.4-.6,0-.2-.1-.5-.1-.8s0-.5.1-.8c0-.2.2-.5.4-.6.2-.2.4-.3.6-.4.2-.1.5-.2.8-.2s.4,0,.6,0c.2,0,.4.1.5.3.1.1.3.3.4.4,0,.2.2.4.2.6h-.8c0,0,0-.2,0-.3M90.2,42.5h-.8v-3.8h.8v3.8ZM86.9,38.7c.2,0,.5,0,.7.1.2,0,.4.2.5.4.2.2.3.4.4.6,0,.2.1.5.1.8s0,.5-.1.8c0,.2-.2.4-.3.6-.1.2-.3.3-.5.4-.2,0-.5.1-.8.1h-1.6v-3.8h1.6ZM86.9,41.8c.1,0,.2,0,.4,0,.1,0,.2-.1.3-.2,0,0,.2-.2.2-.4,0-.1,0-.3,0-.5s0-.4,0-.5c0-.2,0-.3-.2-.4,0-.1-.2-.2-.3-.3-.1,0-.3,0-.5,0h-.6v2.4h.7ZM84.6,38.7v.7h-2v.8h1.8v.6h-1.8v.9h2v.7h-2.9v-3.8h2.8ZM78,38.7l.9,2.6h0l.8-2.6h1.2v3.8h-.8v-2.7h0l-.9,2.7h-.6l-.9-2.7h0v2.7h-.8v-3.8h1.2ZM72.3,41.6c0,0,.1.2.2.2,0,0,.2,0,.3.1.1,0,.2,0,.3,0s.2,0,.2,0c0,0,.2,0,.2,0,0,0,.1,0,.2-.1,0,0,0-.1,0-.2s0-.2,0-.3c0,0-.2-.1-.3-.2-.1,0-.2,0-.4-.1-.1,0-.3,0-.4-.1-.1,0-.3,0-.4-.1-.1,0-.3-.1-.4-.2-.1,0-.2-.2-.3-.3,0-.1,0-.3,0-.4s0-.4.1-.5c0-.1.2-.3.3-.4.1,0,.3-.2.5-.2.2,0,.3,0,.5,0s.4,0,.6,0c.2,0,.3.1.5.2.1,0,.3.2.3.4,0,.2.1.3.1.6h-.8c0-.1,0-.2,0-.3,0,0,0-.1-.2-.2,0,0-.1,0-.2,0,0,0-.2,0-.3,0s-.1,0-.2,0c0,0-.1,0-.2,0,0,0-.1,0-.1.1,0,0,0,.1,0,.2s0,.1,0,.2c0,0,0,0,.2.1,0,0,.2,0,.3.1.1,0,.3,0,.6.1,0,0,.2,0,.3,0,.1,0,.3,0,.4.2.1,0,.2.2.3.3,0,.1.1.3.1.5s0,.3-.1.5c0,.1-.2.3-.3.4-.1.1-.3.2-.5.3-.2,0-.4,0-.7,0s-.4,0-.6,0c-.2,0-.4-.1-.5-.2-.2-.1-.3-.3-.4-.4,0-.2-.1-.4-.1-.6h.8c0,.1,0,.2,0,.3M69.8,38.7l1.4,3.8h-.9l-.3-.8h-1.4l-.3.8h-.8l1.4-3.8h.9ZM69.8,41l-.5-1.4h0l-.5,1.4h1ZM63.9,38.7h1l.7,1.2.8-1.2h.9l-1.2,1.8,1.3,2h-1l-.8-1.3-.8,1.3h-.9l1.3-2-1.2-1.8ZM63.5,38.7v.7h-2v.8h1.8v.6h-1.8v.9h2v.7h-2.9v-3.8h2.8ZM57,39.4v-.7h3.1v.7h-1.1v3.1h-.8v-3.1h-1.1ZM55.2,38.7v.7h-1.8v.9h1.6v.6h-1.6v1.6h-.8v-3.8h2.7ZM48.2,39.8c0-.2.2-.5.4-.6.2-.2.4-.3.6-.4.2-.1.5-.2.8-.2s.6,0,.8.2c.2.1.4.2.6.4.2.2.3.4.4.6,0,.2.1.5.1.8s0,.5-.1.8c0,.2-.2.4-.4.6-.2.2-.4.3-.6.4-.2.1-.5.2-.8.2s-.6,0-.8-.2c-.2-.1-.4-.2-.6-.4-.2-.2-.3-.4-.4-.6s-.1-.5-.1-.8,0-.5.1-.8M49,41.1c0,.2,0,.3.2.4,0,.1.2.2.3.3.1,0,.3.1.5.1s.3,0,.5-.1c.1,0,.2-.2.3-.3,0-.1.1-.3.2-.4,0-.2,0-.3,0-.5s0-.3,0-.5c0-.2,0-.3-.2-.4,0-.1-.2-.2-.3-.3-.1,0-.3-.1-.5-.1s-.3,0-.5.1c-.1,0-.2.2-.3.3,0,.1-.1.3-.2.4,0,.2,0,.3,0,.5s0,.3,0,.5M42.6,38.7h.9l.9,1.5.9-1.5h.9l-1.4,2.3v1.5h-.8v-1.5l-1.4-2.3ZM39.3,39.4v-.7h3.1v.7h-1.1v3.1h-.8v-3.1h-1.1ZM38.8,42.5h-.8v-3.8h.8v3.8ZM35,41.6c0,0,.1.2.2.2,0,0,.2,0,.3.1.1,0,.2,0,.3,0s.2,0,.2,0c0,0,.2,0,.2,0,0,0,.1,0,.2-.1,0,0,0-.1,0-.2s0-.2,0-.3c0,0-.2-.1-.3-.2-.1,0-.2,0-.4-.1-.1,0-.3,0-.4-.1-.1,0-.3,0-.4-.1-.1,0-.3-.1-.4-.2-.1,0-.2-.2-.3-.3,0-.1,0-.3,0-.4s0-.4.1-.5c0-.1.2-.3.3-.4.1,0,.3-.2.5-.2.2,0,.3,0,.5,0s.4,0,.6,0c.2,0,.3.1.5.2.1,0,.3.2.3.4,0,.2.1.3.1.6h-.8c0-.1,0-.2,0-.3,0,0,0-.1-.2-.2,0,0-.1,0-.2,0,0,0-.2,0-.3,0s-.1,0-.2,0c0,0-.1,0-.2,0,0,0-.1,0-.1.1,0,0,0,.1,0,.2s0,.1,0,.2c0,0,0,0,.2.1,0,0,.2,0,.3.1.1,0,.3,0,.6.1,0,0,.2,0,.3,0,.1,0,.3,0,.4.2.1,0,.2.2.3.3,0,.1.1.3.1.5s0,.3-.1.5c0,.1-.2.3-.3.4-.1.1-.3.2-.5.3-.2,0-.4,0-.7,0s-.4,0-.6,0c-.2,0-.4-.1-.5-.2-.2-.1-.3-.3-.4-.4,0-.2-.1-.4-.1-.6h.8c0,.1,0,.2,0,.3M32.5,38.7c.2,0,.3,0,.5,0,.1,0,.3.1.4.2,0,0,.2.2.2.3,0,.1,0,.3,0,.4,0,.2,0,.4-.1.6,0,.2-.2.3-.5.4h0c.1,0,.2,0,.3.1,0,0,.1.1.2.2,0,0,0,.2,0,.3,0,0,0,.2,0,.3,0,0,0,.1,0,.2,0,0,0,.2,0,.3,0,0,0,.2,0,.2,0,0,0,.1,0,.2h-.8c0-.1,0-.3,0-.4,0-.2,0-.3,0-.5,0-.2,0-.3-.2-.4,0,0-.2-.1-.5-.1h-.8v1.5h-.8v-3.8h2ZM32.2,40.4c.2,0,.3,0,.4-.1,0,0,.1-.2.1-.4s0-.3-.1-.4c0,0-.2-.1-.4-.1h-.9v1.1h.9ZM29.7,38.7v.7h-2v.8h1.8v.6h-1.8v.9h2v.7h-2.9v-3.8h2.8ZM24.3,42.5l-1.2-3.8h.9l.8,2.7h0l.9-2.7h.9l-1.3,3.8h-.9ZM22.6,42.5h-.8v-3.8h.8v3.8ZM18.5,38.7l1.6,2.5h0v-2.5h.8v3.8h-.8l-1.6-2.5h0v2.5h-.8v-3.8h.8ZM16.5,42.2c-.3.3-.7.4-1.2.4s-.9-.1-1.2-.4c-.3-.2-.4-.6-.4-1.1v-2.4h.8v2.4c0,.1,0,.2,0,.3,0,0,0,.2.1.3,0,0,.1.1.2.2.1,0,.2,0,.4,0,.3,0,.5,0,.6-.2.1-.1.2-.3.2-.6v-2.4h.8v2.4c0,.5-.1.9-.4,1.1M11.4,38.7v.7h-2v.8h1.8v.6h-1.8v.9h2v.7h-2.9v-3.8h2.8ZM5.3,38.7v1.5h1.5v-1.5h.8v3.8h-.8v-1.6h-1.5v1.6h-.8v-3.8h.8ZM.8,39.4v-.7h3.1v.7h-1.1v3.1h-.8v-3.1H.8Z"/>
      <path class="cls-2" d="M73.3,11.5h-8.1v20.3h-5.8V11.5h-8v11c0,6.5-4.6,9.9-10.2,9.9s-10.2-3.4-10.2-9.9V6h5.8v16c0,3.1,1.8,4.7,4.5,4.7s4.5-1.6,4.5-4.7V6h33.1l-5.5,5.5Z"/>
      <path class="cls-2" d="M3.6,11.2l-2.7,2.7v.7h0v1.2c0,3.2.3,7.1,2.2,10.8v-4.5c0-5.2,4.2-9.4,9.4-9.4s9.4,4.2,9.4,9.4v4.5c1.9-3.7,2.2-7.6,2.2-10.8v-.2h0v-1.7l-2.7-2.7H3.6Z"/>
      <path class="cls-2" d="M9.3,20.6c.4-.7.9-1.3,1.7-1.7l-.6-1.9c-1.3.6-2.4,1.6-2.9,2.9l1.9.6Z"/>
      <path class="cls-2" d="M12.1,18.6c.2,0,.4,0,.5,0s.4,0,.5,0l.6-1.9c-.4,0-.7-.1-1.1-.1s-.8,0-1.1.1l.6,1.9Z"/>
      <path class="cls-2" d="M16.3,22.2c0,.2,0,.4,0,.5l1.9.6c0-.4.1-.7.1-1.1s0-.8-.1-1.1l-1.9.6c0,.2,0,.4,0,.5"/>
      <path class="cls-2" d="M10.9,25.5c-.7-.4-1.3-.9-1.7-1.7l-1.9.6c.6,1.3,1.6,2.4,2.9,2.9l.6-1.9Z"/>
      <path class="cls-2" d="M14.2,18.9c.7.4,1.3.9,1.7,1.7l1.9-.6c-.6-1.3-1.6-2.4-2.9-2.9l-.6,1.9Z"/>
      <path class="cls-2" d="M8.9,22.2c0-.2,0-.4,0-.5l-1.9-.6c0,.4-.1.7-.1,1.1s0,.8.1,1.1l1.9-.6c0-.2,0-.4,0-.5"/>
      <path class="cls-2" d="M13.1,25.9c-.2,0-.4,0-.5,0s-.4,0-.5,0l-.6,1.9c.4,0,.7.1,1.1.1s.8,0,1.1-.1l-.6-1.9Z"/>
      <path class="cls-2" d="M12.6,29.1c-3.8,0-6.8-3.1-6.8-6.8s3.1-6.8,6.8-6.8,6.8,3.1,6.8,6.8-3.1,6.8-6.8,6.8M12.6,13.8c-4.6,0-8.3,3.7-8.3,8.3v6.4c.5.7,1.1,1.4,1.8,2.1h0s0,0,0,0c1.5,1.5,3.5,2.8,6.4,4.4h0s0,0,0,0,0,0,0,0h0c2.9-1.6,4.9-3,6.4-4.4,0,0,0,0,0,0h0c.7-.7,1.3-1.3,1.8-2.1v-6.4c0-4.6-3.7-8.3-8.3-8.3"/>
      <path class="cls-2" d="M15.9,23.9c-.4.7-.9,1.3-1.7,1.7l.6,1.9c1.3-.6,2.4-1.6,2.9-2.9l-1.9-.6Z"/>
      <path class="cls-2" d="M12.6,8.1l-1.8,1.3.7-2.1-1.8-1.3h2.2l.7-2.1.7,2.1h2.2l-1.8,1.3.7,2.1-1.8-1.3ZM16.4,6l-3.8-3.8-3.8,3.8-4,4h15.6l-4-4Z"/>
      <polygon class="cls-2" points=".9 6 .9 12.3 7.2 6 .9 6"/>
      <polygon class="cls-2" points="18 6 24.3 12.3 24.3 6 18 6"/>
      <path class="cls-2" d="M12.6,19.7c-1.4,0-2.5,1.1-2.5,2.5s1.1,2.5,2.5,2.5,2.5-1.1,2.5-2.5-1.1-2.5-2.5-2.5"/>
    </g>
  </g>
</svg>